<?xml version="1.0" encoding="UTF-8"?> <!-- Creator: CorelDRAW 2017 --> <svg xmlns="http://www.w3.org/2000/svg" xmlns:xlink="http://www.w3.org/1999/xlink" xml:space="preserve" width="100.5mm" height="81.5mm" style="shape-rendering:geometricPrecision; text-rendering:geometricPrecision; image-rendering:optimizeQuality; fill-rule:evenodd; clip-rule:evenodd" viewBox="0 0 10050 8150"> <defs> <style type="text/css"> <![CDATA[ .fil1 {fill:#00995E} .fil0 {fill:#00995E;fill-rule:nonzero} ]]> </style> </defs> <g id="Слой_x0020_1"> <metadata id="CorelCorpID_0Corel-Layer"></metadata> <g id="_2524554661280"> <path class="fil0" d="M4477.64 4916.26c0,326.82 -64.3,622.84 -192.88,890.72 -107.15,218.33 -254.49,409.86 -442.01,573.27 -187.51,163.41 -408.52,286.64 -663.01,372.36 -254.48,85.72 -523.71,128.58 -807.66,128.58 -176.81,0 -329.51,-12.06 -458.09,-36.16 -128.58,-24.11 -270.56,-68.31 -425.93,-132.6 -444.69,-182.17 -752.76,-440.68 -924.2,-778.21 -133.94,-267.89 -200.92,-636.23 -200.92,-1107.7l0 -3659.29 3536.07 0 0 1125.1 -2346.66 0 0 2437.75c0,223.69 18.75,392.45 56.25,504.97 58.94,182.15 184.84,322.8 377.72,424.59 123.23,64.29 267.89,96.43 433.97,96.43 246.46,0 452.72,-69.65 618.82,-207.6 69.65,-58.93 128.58,-135.29 176.79,-227.7 48.23,-93.76 72.34,-204.93 72.34,-332.18 0,-133.94 -18.76,-239.75 -56.25,-320.11 -37.51,-79.03 -95.11,-154.04 -172.79,-223.69 -77.69,-69.65 -170.11,-123.23 -277.26,-163.41 -107.16,-40.18 -217,-60.27 -329.5,-60.27 -182.16,0 -375.04,48.21 -578.63,144.66l0 -1052.79c241.1,-91.08 490.23,-136.63 747.4,-136.63 428.61,0 798.29,99.12 1109.04,297.36 273.24,175.46 471.47,403.16 594.69,680.42 101.8,235.75 152.7,490.23 152.7,762.13zm4178.99 1876.53l-594.7 0c-658.99,0 -1232.26,-168.77 -1719.81,-506.3 -337.53,-235.74 -613.46,-533.09 -827.77,-892.05 -251.8,-428.62 -377.71,-900.09 -377.71,-1414.43 0,-241.09 32.15,-484.88 96.44,-731.32 64.3,-246.46 158.04,-474.15 281.27,-683.11 214.31,-358.97 490.24,-656.32 827.77,-892.05 487.55,-337.54 1060.82,-506.3 1719.81,-506.3l594.7 0 0 1125.1 -594.7 0c-492.9,0 -905.44,160.74 -1237.62,482.21 -332.18,321.45 -498.26,723.28 -498.26,1205.47 0,482.19 166.08,884.02 498.26,1205.48 332.18,321.45 744.72,482.19 1237.62,482.19l594.7 0 0 1125.11z"></path> <g> <path class="fil1" d="M8388.61 5422.15c417.75,0 693.11,10.82 1088.52,-146.44 354.27,-140.9 278.16,-313.98 278.16,-611 -86.46,45.75 -135.19,80.65 -239.76,122.49 -564.18,225.75 -1597.57,223.92 -2114.88,-122.49 0,120.55 -30.45,315.68 12.76,415.36 97.26,224.41 719.81,342.08 975.2,342.08z"></path> <path class="fil1" d="M8377.53 4720.98c417.74,0 693.11,10.82 1088.51,-146.43 354.27,-140.9 278.16,-313.98 278.16,-611 -86.46,45.75 -135.19,80.65 -239.76,122.49 -564.18,225.74 -1597.57,223.91 -2114.88,-122.49 0,120.55 -30.44,315.68 12.76,415.36 97.26,224.41 719.81,342.07 975.21,342.07z"></path> <path class="fil1" d="M7394.94 2900.14c0,259.42 427.95,382.54 644.64,409.19 438.78,53.98 889.25,69.44 1312.92,-65.31 922.22,-293.3 126.6,-869.42 -1153.69,-725.58 -203.36,22.84 -803.87,135.33 -803.87,381.7z"></path> <path class="fil1" d="M8382.91 4036.29c417.74,0 693.11,10.82 1088.51,-146.43 354.28,-140.9 278.17,-313.99 278.17,-611.01 -86.47,45.76 -135.2,80.66 -239.76,122.49 -564.19,225.75 -1597.58,223.92 -2114.89,-122.49 0,120.55 -30.44,315.69 12.76,415.36 97.26,224.41 719.81,342.08 975.21,342.08z"></path> </g> </g> </g> </svg> 